<?xml version="1.0" encoding="iso-8859-1"?>
<!-- Uploaded to: SVG Repo, www.svgrepo.com, Generator: SVG Repo Mixer Tools -->
<svg fill="#000000" height="800px" width="800px" version="1.1" id="Capa_1" xmlns="http://www.w3.org/2000/svg" xmlns:xlink="http://www.w3.org/1999/xlink" 
	 viewBox="0 0 19.938 19.938" xml:space="preserve">
<g>
	<path d="M13.431,17.412h-0.3v-1.43H13.4l-0.475-0.477v-0.781h0.206L12.806,14.4c0,0-0.076-1.215-0.628-2.437
		c-0.551-1.22-1.294-1.843-1.294-1.843V9.694l0.172-0.135v-0.22H10.86V7.874l-0.401-0.501v-0.56c0,0,0.108-0.025,0.097-0.085
		c-0.015-0.062-0.17-0.137-0.17-0.137V5.836c0,0,0.135-0.013,0.135-0.072c0-0.062-0.208-0.111-0.208-0.111V4.859
		c0,0,0.073,0,0.084-0.048c0.013-0.051-0.109-0.1-0.109-0.1V3.844L10.055,0H9.883l-0.23,3.845v0.867c0,0-0.122,0.049-0.111,0.1
		C9.554,4.86,9.628,4.86,9.628,4.86v0.793c0,0-0.208,0.05-0.208,0.111s0.134,0.072,0.134,0.072v0.756c0,0-0.155,0.074-0.17,0.137
		C9.369,6.788,9.48,6.812,9.48,6.812v0.561L9.078,7.874v1.465H8.882V9.56l0.17,0.135v0.427c0,0-0.743,0.623-1.291,1.843
		C7.21,13.185,7.13,14.4,7.13,14.4l-0.321,0.324h0.204v0.781L6.54,15.981h0.269v1.43h-0.3l-0.619,0.93h0.361v1.597h7.436v-1.597
		h0.361L13.431,17.412z M7.216,14.488h5.542l0.127,0.146H7.054L7.216,14.488z M7.21,15.56h5.537l0.338,0.347H6.851L7.21,15.56z
		 M9.014,18.16l0.957-0.433l0.955,0.433H9.014z M6.208,18.16l0.401-0.585h3.164L8.48,18.16H6.208z M11.459,18.16l-1.293-0.585h3.146
		l0.423,0.585H11.459z"/>
</g>
</svg>